<svg width="347" height="312" viewBox="0 0 347 312" fill="none" xmlns="http://www.w3.org/2000/svg">
<circle cx="120.829" cy="120.829" r="120.829" transform="matrix(-0.966466 -0.256795 -0.256795 0.966466 295.61 77.7715)" fill="#64A7B4"/>
<line x1="20" y1="-20" x2="1.01366" y2="-20" transform="matrix(0.256795 -0.966466 -0.966466 -0.256795 155.966 145.757)" stroke="white" stroke-width="40" stroke-linecap="round"/>
<line x1="20" y1="-20" x2="1.01366" y2="-20" transform="matrix(0.256795 -0.966466 -0.966466 -0.256795 81.4995 125.971)" stroke="white" stroke-width="40" stroke-linecap="round"/>
<circle cx="13.4335" cy="13.4335" r="13.4335" transform="matrix(-0.966466 -0.256795 -0.256795 0.966466 181.304 125.131)" fill="#010101"/>
<circle cx="13.4335" cy="13.4335" r="13.4335" transform="matrix(-0.966466 -0.256795 -0.256795 0.966466 106.303 109.127)" fill="#010101"/>
<path d="M324.67 36.7746C324.788 38.6381 324.738 40.8372 324.435 43.1761C324.687 61.355 332.929 72.3118 337.47 75.7384C321.634 76.2221 313.232 86.4175 309.639 94.6047C309.151 96.4468 308.527 98.3911 307.753 100.442C308.08 98.7782 308.693 96.7611 309.639 94.6047C314.801 75.1557 304.967 67.1022 298.852 65.4775C316.923 66.4166 323.108 53.4487 324.435 43.1761C324.407 41.1333 324.48 38.9993 324.67 36.7746Z" fill="#FFE278" stroke="#E7B046" stroke-linecap="round"/>
<path fill-rule="evenodd" clip-rule="evenodd" d="M308.712 135.717C306.702 135.93 298.466 134.784 294.65 137.23C290.833 139.668 271.267 159.227 260.114 159.411C248.621 159.59 224.575 136.505 221.654 130.014C215.124 115.477 228.363 96.4159 232.799 86.9646C235.316 81.6166 228.688 76.2314 228.688 76.2314C228.688 76.2314 222.061 70.8461 217.34 74.3956C208.992 80.6759 192.993 97.579 177.444 94.1608C170.481 92.6356 142.964 73.822 140.777 62.5283C138.685 51.5809 153.876 28.3742 155.485 24.1346C157.099 19.9071 154.283 12.0723 154.085 10.0652C153.878 8.05064 157.496 3.59775 159.514 3.38358C163.529 2.95329 191.203 22.1488 216.752 48.0461C221.848 53.215 222.673 56.5505 235.933 67.3247C249.183 78.0914 252.63 78.2192 258.724 82.1514C289.279 101.85 313.736 125.013 314.141 129.035C314.339 131.042 310.717 135.5 308.712 135.717Z" fill="#31373D"/>
<path d="M281.267 71.0982C281.307 72.8206 281.198 74.8592 280.878 77.0349C280.526 93.8659 286.941 103.762 290.554 106.797C277.57 107.731 270.377 117.432 267.183 125.126C266.726 126.847 266.156 128.667 265.459 130.591C265.778 129.04 266.342 127.152 267.183 125.126C272.007 106.952 264.2 99.7943 259.242 98.477C274.013 98.7925 279.476 86.5909 280.878 77.0349C280.918 75.1436 281.043 73.1647 281.267 71.0982Z" fill="#FFE278" stroke="#E7B046" stroke-linecap="round"/>
</svg>
