<svg width="120" height="150" viewBox="0 0 120 150" fill="none" xmlns="http://www.w3.org/2000/svg">
<rect y="6.88281" width="119.303" height="119.303" rx="5" fill="#B492C0"/>
<path d="M44.833 54.11C42.3397 54.11 40.433 53.8167 39.113 53.23C37.793 52.57 36.8397 51.8367 36.253 51.03C35.7397 50.2233 35.4463 49.49 35.373 48.83C35.2997 48.0967 35.263 47.6567 35.263 47.51C35.263 47.1433 35.1163 46.5567 34.823 45.75C34.603 44.87 33.8697 44.43 32.623 44.43C30.5697 44.43 28.7363 45.0533 27.123 46.3C25.583 47.5467 24.7397 49.38 24.593 51.8C24.4463 54.22 25.0697 56.31 26.463 58.07C27.8563 59.83 30.6063 60.7467 34.713 60.82C36.7663 60.82 38.9297 61.1133 41.203 61.7C43.4763 62.2867 45.603 63.24 47.583 64.56C49.6363 65.8067 51.2497 67.53 52.423 69.73C53.6697 71.8567 54.293 74.5333 54.293 77.76C54.2197 84.2133 52.4963 89.2 49.123 92.72C45.7497 96.24 40.1397 98 32.293 98C27.0863 98 22.9063 97.3767 19.753 96.13C16.5997 94.81 14.2897 93.27 12.823 91.51C11.4297 89.75 10.6963 88.1733 10.623 86.78C10.5497 85.3867 10.623 84.03 10.843 82.71C11.1363 81.39 11.9063 80.2533 13.153 79.3C14.473 78.3467 16.563 77.76 19.423 77.54C22.3563 77.32 24.4463 77.5767 25.693 78.31C26.9397 78.97 27.7097 79.74 28.003 80.62C28.3697 81.5 28.553 82.05 28.553 82.27C28.553 82.49 28.6263 83.04 28.773 83.92C28.993 84.7267 29.3597 85.5333 29.873 86.34C30.4597 87.0733 31.2663 87.44 32.293 87.44C33.833 87.44 35.153 86.8167 36.253 85.57C37.353 84.3233 38.0497 82.3067 38.343 79.52C38.8563 74.02 36.1063 71.27 30.093 71.27C28.6263 71.27 26.7197 71.05 24.373 70.61C22.0997 70.0967 19.8263 69.2167 17.553 67.97C15.2797 66.65 13.373 64.8167 11.833 62.47C10.293 60.1233 9.55966 57.0433 9.633 53.23C9.70633 49.4167 10.403 46.3 11.723 43.88C13.043 41.3867 14.7663 39.48 16.893 38.16C19.093 36.7667 21.4763 35.7767 24.043 35.19C26.683 34.6033 29.2863 34.2733 31.853 34.2C35.2997 34.1267 38.5997 34.53 41.753 35.41C44.9797 36.29 47.6563 37.6467 49.783 39.48C51.983 41.24 53.2297 43.55 53.523 46.41C53.743 48.5367 53.413 50.15 52.533 51.25C51.7263 52.2767 50.6997 53.01 49.453 53.45C48.2797 53.8167 47.2163 54.0367 46.263 54.11C45.3097 54.11 44.833 54.11 44.833 54.11Z" fill="#CFD772"/>
<path d="M64.6239 70.1816C64.3556 95.2398 96.7731 104.718 102.966 68.7073" stroke="#CFD772" stroke-width="10" stroke-linecap="round"/>
<line x1="100.516" y1="65.9319" x2="107.918" y2="68.7466" stroke="#CFD772" stroke-width="10" stroke-linecap="round"/>
<line x1="75.3" y1="56.5098" x2="75.3" y2="48.5909" stroke="white" stroke-width="10" stroke-linecap="round"/>
<line x1="93.6542" y1="56.5098" x2="93.6542" y2="48.5909" stroke="white" stroke-width="10" stroke-linecap="round"/>
<circle cx="69.9757" cy="53.916" r="3.44142" fill="#010101"/>
<circle cx="88.33" cy="53.916" r="3.44142" fill="#010101"/>
</svg>
