<svg width="235" height="184" viewBox="0 0 235 184" fill="none" xmlns="http://www.w3.org/2000/svg">
<ellipse cx="87.9897" cy="67.8137" rx="87.9897" ry="67.8137" transform="matrix(-1 0 0 1 175.979 47.5615)" fill="#DE9199"/>
<path d="M116.656 102C120.39 102 124.056 101.4 127.656 100.2C131.123 99 133.056 96.8 133.456 93.6C133.856 91.8667 134.19 90.2 134.456 88.6C134.723 87 134.19 85.5333 132.856 84.2C130.99 82.2 128.256 80.8667 124.656 80.2C121.056 79.5333 117.39 79.4667 113.656 80C109.923 80.5333 106.923 81.5333 104.656 83C103.056 84.0667 101.99 85.4667 101.456 87.2C100.923 88.8 100.59 90.4667 100.456 92.2C100.056 94.6 100.723 96.5333 102.456 98C104.19 99.4667 106.39 100.533 109.056 101.2C111.723 101.733 114.256 102 116.656 102Z" fill="white"/>
<path d="M57.135 105.682C60.8683 105.682 64.535 105.082 68.135 103.882C71.6017 102.682 73.535 100.482 73.935 97.2816C74.335 95.5483 74.6683 93.8816 74.935 92.2816C75.2017 90.6816 74.6683 89.215 73.335 87.8816C71.4683 85.8816 68.735 84.5483 65.135 83.8816C61.535 83.215 57.8683 83.1483 54.135 83.6816C50.4017 84.215 47.4017 85.215 45.135 86.6816C43.535 87.7483 42.4683 89.1483 41.935 90.8816C41.4017 92.4816 41.0683 94.1483 40.935 95.8816C40.535 98.2816 41.2017 100.215 42.935 101.682C44.6683 103.148 46.8683 104.215 49.535 104.882C52.2017 105.415 54.735 105.682 57.135 105.682Z" fill="white"/>
<path d="M63.8866 92.7271C63.8866 97.0604 67.274 100.573 71.4526 100.573C75.6311 100.573 79.0185 97.0604 79.0185 92.7271C79.0185 88.3937 75.6311 84.8809 71.4526 84.8809C67.274 84.8809 63.8866 88.3937 63.8866 92.7271Z" fill="#010101"/>
<circle cx="7.84621" cy="7.84621" r="7.84621" transform="matrix(-1 0 0 1 135.579 84.8809)" fill="#010101"/>
<path d="M146.778 128.169C141.272 138.68 124.55 146.934 115.882 146.28C129.294 152.023 178.529 147.78 200.204 141.123C212.582 136.925 235.559 119.522 227.764 99.7451C219.913 79.8281 174.459 90.7536 169.34 97.5855C155.097 106.865 152.284 117.658 146.778 128.169Z" fill="#E9C7CA" stroke="white" stroke-linecap="square"/>
</svg>
