<svg width="368" height="278" viewBox="0 0 368 278" fill="none" xmlns="http://www.w3.org/2000/svg">
<ellipse cx="130.677" cy="100.713" rx="130.677" ry="100.713" transform="matrix(-1 0 0 1 367.353 76.5742)" fill="#DE9199"/>
<path d="M272.471 167C279.005 167 285.421 165.95 291.721 163.85C297.788 161.75 301.171 157.9 301.871 152.3C302.571 149.267 303.155 146.35 303.621 143.55C304.088 140.75 303.155 138.183 300.821 135.85C297.555 132.35 292.771 130.017 286.471 128.85C280.171 127.683 273.755 127.567 267.221 128.5C260.688 129.433 255.438 131.183 251.471 133.75C248.671 135.617 246.805 138.067 245.871 141.1C244.938 143.9 244.355 146.817 244.121 149.85C243.421 154.05 244.588 157.433 247.621 160C250.655 162.567 254.505 164.433 259.171 165.6C263.838 166.533 268.271 167 272.471 167Z" fill="white"/>
<path d="M187.989 169.496C194.523 169.496 200.939 168.446 207.239 166.346C213.306 164.246 216.689 160.396 217.389 154.796C218.089 151.763 218.673 148.846 219.139 146.046C219.606 143.246 218.673 140.679 216.339 138.346C213.073 134.846 208.289 132.513 201.989 131.346C195.689 130.179 189.273 130.063 182.739 130.996C176.206 131.929 170.956 133.679 166.989 136.246C164.189 138.113 162.323 140.563 161.389 143.596C160.456 146.396 159.873 149.313 159.639 152.346C158.939 156.546 160.106 159.929 163.139 162.496C166.173 165.063 170.023 166.929 174.689 168.096C179.356 169.029 183.789 169.496 187.989 169.496Z" fill="white"/>
<path d="M200.88 143.653C200.88 150.088 205.911 155.305 212.117 155.305C218.322 155.305 223.353 150.088 223.353 143.653C223.353 137.217 218.322 132 212.117 132C205.911 132 200.88 137.217 200.88 143.653Z" fill="#010101"/>
<circle cx="11.6527" cy="11.6527" r="11.6527" transform="matrix(-1 0 0 1 307.353 132)" fill="#010101"/>
<path d="M131.058 171.326C143.249 184.05 170.512 188.928 182.608 184.418C165.844 198.144 93.8499 212.403 60.1796 211.846C40.789 210.964 0.827919 195.615 3.79079 164.183C6.77459 132.529 76.131 129.365 86.2526 137C110.401 144.363 118.866 158.601 131.058 171.326Z" fill="#E9C7CA" stroke="white" stroke-linecap="square"/>
</svg>
