<svg width="500" height="603" viewBox="0 0 500 603" fill="none" xmlns="http://www.w3.org/2000/svg">
<ellipse cx="144.657" cy="460.948" rx="116.179" ry="112.269" transform="rotate(14.8961 144.657 460.948)" fill="#CFD772"/>
<path d="M100.939 443.793C94.5659 442.354 88.5381 439.916 82.8554 436.48C77.4003 433.096 74.9481 428.595 75.4987 422.978C75.4841 419.865 75.5575 416.892 75.719 414.058C75.8805 411.224 77.3563 408.926 80.1463 407.164C84.1036 404.469 89.2834 403.247 95.6857 403.496C102.088 403.746 108.373 405.045 114.54 407.395C120.707 409.744 125.443 412.608 128.747 415.985C131.067 418.423 132.348 421.224 132.59 424.388C132.884 427.325 132.811 430.298 132.37 433.309C132.128 437.56 130.245 440.603 126.72 442.438C123.196 444.274 119.03 445.247 114.221 445.357C109.463 445.239 105.036 444.718 100.939 443.793Z" fill="white"/>
<path d="M202.162 466.649C195.789 465.21 189.761 462.773 184.078 459.337C178.623 455.952 176.171 451.451 176.722 445.835C176.707 442.722 176.781 439.748 176.942 436.914C177.104 434.08 178.579 431.782 181.369 430.02C185.327 427.325 190.506 426.103 196.909 426.353C203.311 426.602 209.596 427.902 215.763 430.251C221.93 432.601 226.666 435.464 229.97 438.842C232.29 441.279 233.571 444.08 233.813 447.245C234.107 450.181 234.034 453.155 233.593 456.165C233.351 460.416 231.468 463.459 227.943 465.295C224.419 467.13 220.253 468.103 215.444 468.213C210.686 468.096 206.259 467.575 202.162 466.649Z" fill="white"/>
<circle cx="180.815" cy="443.085" r="13.8361" transform="rotate(12.7245 180.815 443.085)" fill="#010101"/>
<circle cx="83.3102" cy="419.522" r="13.8361" transform="rotate(12.7245 83.3102 419.522)" fill="#010101"/>
<path d="M207.537 411.312C175.274 405.872 151.159 386.309 143.134 377.208L175.305 273.773C166.857 274.062 159.957 262.462 157.563 256.626C138.509 212.753 176.17 213.5 197.383 219.357C224.241 174.074 252.033 199.668 262.572 218.126C266.991 216.698 278.196 216.129 283.246 216.023C318.075 221.854 309.954 256.203 301.54 272.649C309.631 271.255 316.767 280.44 319.324 285.207C328.927 318.71 294.428 313.587 275.978 306.837C253.948 306.632 221.171 376.402 207.537 411.312Z" fill="white" stroke="white" stroke-width="4" stroke-linecap="square"/>
<path d="M274.916 305.343C245.139 314.87 217.051 377.964 206.728 408.32C171.778 404.652 149.748 384.595 143.101 375.025L176.796 272.67M274.916 305.343C288.57 310.633 316.89 315.785 320.943 294.068C322.193 288.895 320.607 278.159 304.261 276.598C308.756 266.236 314.555 242.651 301.792 231.205C297.285 225.138 283.425 214.522 264.041 220.589C261.043 212.398 250.26 196.054 231.111 196.205C223.018 196.738 206.024 202.386 202.789 220.717C191.73 217.049 167.733 212.544 160.218 223.868C152.886 231.553 145.937 252.072 176.796 272.67M274.916 305.343C243.323 263.068 196.339 265.946 176.796 272.67" stroke="#4D4D4D"/>
<path d="M196.84 270.048C187.576 285.728 165.23 332.888 152.683 384.805M221.847 271.612C207.328 290.501 174.666 342.036 161.536 391.424M241.257 277.795C221.855 302.473 179.69 363.26 174.621 399.066M259.304 289.623C237.777 312.791 193.467 369.276 189.799 404.227" stroke="#4D4D4D" stroke-linecap="round"/>
</svg>
