<svg width="347" height="313" viewBox="0 0 347 313" fill="none" xmlns="http://www.w3.org/2000/svg">
<circle cx="198.491" cy="164.311" r="120.829" transform="rotate(-14.88 198.491 164.311)" fill="#B492C0"/>
<line x1="165.865" y1="132.354" x2="170.74" y2="150.704" stroke="white" stroke-width="40" stroke-linecap="round"/>
<line x1="240.331" y1="112.568" x2="245.207" y2="130.918" stroke="white" stroke-width="40" stroke-linecap="round"/>
<circle cx="181.425" cy="135.455" r="13.4335" transform="rotate(-14.88 181.425 135.455)" fill="#010101"/>
<circle cx="256.426" cy="119.451" r="13.4335" transform="rotate(-14.88 256.426 119.451)" fill="#010101"/>
<path d="M21.6258 37.5656C21.5076 39.4291 21.5581 41.6282 21.8604 43.9671C21.6092 62.1461 13.3667 73.1028 8.82594 76.5294C24.6624 77.0131 33.0637 87.2085 36.6564 95.3957C37.1453 97.2378 37.7687 99.1821 38.5425 101.233C38.2154 99.5692 37.6027 97.5521 36.6564 95.3957C31.4948 75.9467 41.3292 67.8932 47.4438 66.2685C29.3732 67.2076 23.1883 54.2397 21.8604 43.9671C21.8887 41.9243 21.816 39.7903 21.6258 37.5656Z" fill="#FFE278" stroke="#E7B046" stroke-linecap="round"/>
<path fill-rule="evenodd" clip-rule="evenodd" d="M37.584 136.508C39.5937 136.721 47.8297 135.575 51.6458 138.021C55.4628 140.459 75.029 160.018 86.1821 160.202C97.675 160.381 121.721 137.296 124.642 130.805C131.171 116.268 117.933 97.2069 113.497 87.7556C110.98 82.4076 117.608 77.0224 117.608 77.0224C117.608 77.0224 124.235 71.6372 128.956 75.1866C137.303 81.4669 153.303 98.37 168.852 94.9518C175.815 93.4266 203.332 74.613 205.519 63.3193C207.611 52.372 192.419 29.1652 190.811 24.9256C189.197 20.6981 192.013 12.8633 192.211 10.8562C192.418 8.84165 188.8 4.38877 186.782 4.17459C182.767 3.74431 155.093 22.9399 129.544 48.8371C124.447 54.0061 123.623 57.3415 110.363 68.1157C97.1126 78.8825 93.666 79.0102 87.5718 82.9424C57.0166 102.641 32.5597 125.804 32.1547 129.826C31.9568 131.833 35.5788 136.291 37.584 136.508Z" fill="#31373D"/>
<path d="M65.0295 71.8892C64.9898 73.6116 65.0986 75.6502 65.418 77.8259C65.77 94.6569 59.3558 104.553 55.7422 107.588C68.7265 108.522 75.9196 118.223 79.1132 125.917C79.57 127.638 80.1402 129.458 80.8369 131.382C80.518 129.831 79.9543 127.943 79.1132 125.917C74.2893 107.743 82.0962 100.585 87.054 99.268C72.2837 99.5835 66.8206 87.3819 65.418 77.8259C65.3785 75.9346 65.2535 73.9557 65.0295 71.8892Z" fill="#FFE278" stroke="#E7B046" stroke-linecap="round"/>
</svg>
