<svg width="39" height="39" viewBox="0 0 39 39" fill="none" xmlns="http://www.w3.org/2000/svg">
<g clip-path="url(#clip0_19_156)">
<path d="M29.8594 0H9.14062C4.0924 0 0 4.0924 0 9.14062V29.8594C0 34.9076 4.0924 39 9.14062 39H29.8594C34.9076 39 39 34.9076 39 29.8594V9.14062C39 4.0924 34.9076 0 29.8594 0Z" fill="white"/>
<path d="M29.8594 0H9.14062C4.0924 0 0 4.0924 0 9.14062V29.8594C0 34.9076 4.0924 39 9.14062 39H29.8594C34.9076 39 39 34.9076 39 29.8594V9.14062C39 4.0924 34.9076 0 29.8594 0Z" fill="#0A66C2"/>
<path d="M28.1402 33.1629H32.5993C32.7609 33.1629 32.9158 33.0988 33.0301 32.9845C33.1444 32.8703 33.2086 32.7153 33.2087 32.5537L33.2109 23.1325C33.2109 18.2083 32.1499 14.4233 26.3954 14.4233C24.2079 14.3419 22.145 15.4696 21.0318 17.3526C21.0264 17.3617 21.0181 17.3688 21.0082 17.3728C20.9984 17.3768 20.9875 17.3775 20.9772 17.3747C20.9669 17.3719 20.9578 17.3658 20.9513 17.3574C20.9448 17.349 20.9413 17.3387 20.9412 17.328V15.4873C20.9412 15.3257 20.877 15.1707 20.7627 15.0564C20.6484 14.9421 20.4934 14.8779 20.3318 14.8779H16.1001C15.9385 14.8779 15.7835 14.9421 15.6693 15.0564C15.555 15.1707 15.4908 15.3257 15.4908 15.4873V32.5528C15.4908 32.7144 15.555 32.8694 15.6693 32.9837C15.7835 33.098 15.9385 33.1622 16.1001 33.1622H20.5589C20.7206 33.1622 20.8756 33.098 20.9898 32.9837C21.1041 32.8694 21.1683 32.7144 21.1683 32.5528V24.1171C21.1683 21.7318 21.6208 19.4218 24.5779 19.4218C27.493 19.4218 27.5308 22.1512 27.5308 24.2716V32.5536C27.5308 32.7152 27.595 32.8702 27.7093 32.9845C27.8236 33.0987 27.9786 33.1629 28.1402 33.1629ZM5.78906 9.08395C5.78906 10.8914 7.277 12.3785 9.08456 12.3785C10.8917 12.3784 12.3787 10.8903 12.3787 9.08319C12.3784 7.27609 10.8912 5.78906 9.08395 5.78906C7.27624 5.78906 5.78906 7.27655 5.78906 9.08395ZM6.84922 33.1629H11.314C11.4756 33.1629 11.6306 33.0987 11.7449 32.9845C11.8591 32.8702 11.9233 32.7152 11.9233 32.5536V15.4873C11.9233 15.3257 11.8591 15.1707 11.7449 15.0564C11.6306 14.9421 11.4756 14.8779 11.314 14.8779H6.84922C6.68761 14.8779 6.53261 14.9421 6.41833 15.0564C6.30405 15.1707 6.23985 15.3257 6.23985 15.4873V32.5536C6.23985 32.7152 6.30405 32.8702 6.41833 32.9845C6.53261 33.0987 6.68761 33.1629 6.84922 33.1629Z" fill="white"/>
</g>
<defs>
<clipPath id="clip0_19_156">
<rect width="39" height="39" fill="white"/>
</clipPath>
</defs>
</svg>
