<svg width="201" height="80" viewBox="0 0 201 80" fill="none" xmlns="http://www.w3.org/2000/svg">
<rect x="0.000305176" y="21" width="201" height="59" rx="5" fill="#EBC8C6"/>
<path d="M30.5602 44.848C29.4722 44.848 28.6402 44.72 28.0642 44.464C27.4882 44.176 27.0722 43.856 26.8162 43.504C26.5922 43.152 26.4642 42.832 26.4322 42.544C26.4002 42.224 26.3842 42.032 26.3842 41.968C26.3842 41.808 26.3202 41.552 26.1922 41.2C26.0962 40.816 25.7762 40.624 25.2322 40.624C24.3362 40.624 23.5362 40.896 22.8322 41.44C22.1602 41.984 21.7922 42.784 21.7282 43.84C21.6642 44.896 21.9362 45.808 22.5442 46.576C23.1522 47.344 24.3522 47.744 26.1442 47.776C27.0402 47.776 27.9842 47.904 28.9762 48.16C29.9682 48.416 30.8962 48.832 31.7602 49.408C32.6562 49.952 33.3602 50.704 33.8722 51.664C34.4162 52.592 34.6882 53.76 34.6882 55.168C34.6562 57.984 33.9042 60.16 32.4322 61.696C30.9602 63.232 28.5122 64 25.0882 64C22.8162 64 20.9922 63.728 19.6162 63.184C18.2402 62.608 17.2322 61.936 16.5922 61.168C15.9842 60.4 15.6642 59.712 15.6322 59.104C15.6002 58.496 15.6322 57.904 15.7282 57.328C15.8562 56.752 16.1922 56.256 16.7362 55.84C17.3122 55.424 18.2242 55.168 19.4722 55.072C20.7522 54.976 21.6642 55.088 22.2082 55.408C22.7522 55.696 23.0882 56.032 23.2162 56.416C23.3762 56.8 23.4562 57.04 23.4562 57.136C23.4562 57.232 23.4882 57.472 23.5522 57.856C23.6482 58.208 23.8082 58.56 24.0322 58.912C24.2882 59.232 24.6402 59.392 25.0882 59.392C25.7602 59.392 26.3362 59.12 26.8162 58.576C27.2962 58.032 27.6002 57.152 27.7282 55.936C27.9522 53.536 26.7522 52.336 24.1282 52.336C23.4882 52.336 22.6562 52.24 21.6322 52.048C20.6402 51.824 19.6482 51.44 18.6562 50.896C17.6642 50.32 16.8322 49.52 16.1602 48.496C15.4882 47.472 15.1682 46.128 15.2002 44.464C15.2322 42.8 15.5362 41.44 16.1122 40.384C16.6882 39.296 17.4402 38.464 18.3682 37.888C19.3282 37.28 20.3682 36.848 21.4882 36.592C22.6402 36.336 23.7762 36.192 24.8962 36.16C26.4002 36.128 27.8402 36.304 29.2162 36.688C30.6242 37.072 31.7922 37.664 32.7202 38.464C33.6802 39.232 34.2242 40.24 34.3522 41.488C34.4482 42.416 34.3042 43.12 33.9202 43.6C33.5682 44.048 33.1202 44.368 32.5762 44.56C32.0642 44.72 31.6002 44.816 31.1842 44.848C30.7682 44.848 30.5602 44.848 30.5602 44.848ZM36.996 37.792C36.964 36.992 37.204 36.352 37.716 35.872C38.228 35.36 39.364 35.056 41.124 34.96C42.308 34.896 43.172 35.04 43.716 35.392C44.26 35.744 44.596 36.112 44.724 36.496C44.884 36.848 44.964 37.024 44.964 37.024L45.252 41.296C45.252 41.296 45.508 41.296 46.02 41.296C46.564 41.296 47.172 41.36 47.844 41.488C48.548 41.584 49.156 41.792 49.668 42.112C50.212 42.432 50.484 42.928 50.484 43.6C50.484 44.272 50.228 44.768 49.716 45.088C49.204 45.408 48.612 45.632 47.94 45.76C47.268 45.856 46.66 45.904 46.116 45.904C45.604 45.904 45.348 45.904 45.348 45.904C45.348 45.904 45.348 46.272 45.348 47.008C45.38 47.712 45.396 48.64 45.396 49.792C45.396 50.912 45.412 52.112 45.444 53.392C45.476 54.672 45.492 55.904 45.492 57.088C45.492 58.24 45.492 59.216 45.492 60.016C45.524 60.784 45.54 61.232 45.54 61.36C45.54 61.584 45.46 61.904 45.3 62.32C45.172 62.736 44.804 63.12 44.196 63.472C43.62 63.824 42.66 64 41.316 64C40.324 64 39.556 63.888 39.012 63.664C38.468 63.408 38.068 63.136 37.812 62.848C37.588 62.528 37.46 62.256 37.428 62.032C37.396 61.776 37.38 61.648 37.38 61.648L36.996 37.792ZM52.6042 47.392C52.6042 47.392 52.6042 47.248 52.6042 46.96C52.6362 46.672 52.7482 46.352 52.9402 46C53.1322 45.616 53.4842 45.28 53.9962 44.992C54.5402 44.704 55.3082 44.56 56.3002 44.56C57.5162 44.56 58.3802 44.736 58.8922 45.088C59.4362 45.408 59.7562 45.808 59.8522 46.288C59.9802 46.736 60.0122 47.184 59.9482 47.632C59.8842 48.048 59.8522 48.336 59.8522 48.496C59.8522 48.624 59.8522 49.104 59.8522 49.936C59.8842 50.736 59.9482 51.696 60.0442 52.816C60.1402 53.936 60.3002 55.04 60.5242 56.128C60.7482 57.216 61.0682 58.128 61.4842 58.864C61.9002 59.568 62.4442 59.904 63.1162 59.872C63.7882 59.84 64.2362 59.488 64.4602 58.816C64.6842 58.144 64.7642 57.312 64.7002 56.32C64.6682 55.328 64.5562 54.336 64.3642 53.344C64.1722 52.352 63.9802 51.504 63.7882 50.8C63.5962 50.064 63.5002 49.648 63.5002 49.552C63.5002 49.424 63.4522 49.2 63.3562 48.88C63.2922 48.528 63.2922 48.144 63.3562 47.728C63.4522 47.312 63.7242 46.928 64.1722 46.576C64.6202 46.224 65.3562 46 66.3802 45.904C67.4042 45.808 68.2042 45.872 68.7802 46.096C69.3882 46.288 69.8202 46.544 70.0762 46.864C70.3642 47.184 70.5402 47.488 70.6042 47.776C70.6682 48.032 70.7002 48.16 70.7002 48.16C70.7002 48.16 70.8122 48.544 71.0362 49.312C71.2602 50.08 71.4682 51.072 71.6602 52.288C71.8522 53.472 71.9162 54.736 71.8522 56.08C71.8202 57.424 71.5322 58.704 70.9882 59.92C70.4762 61.104 69.6122 62.08 68.3962 62.848C67.2122 63.616 65.5482 64 63.4042 64C61.2602 64 59.5002 63.6 58.1242 62.8C56.7482 62 55.6602 60.976 54.8602 59.728C54.0922 58.448 53.5322 57.104 53.1802 55.696C52.8282 54.288 52.6202 52.96 52.5562 51.712C52.4922 50.432 52.4762 49.392 52.5082 48.592C52.5722 47.792 52.6042 47.392 52.6042 47.392ZM89.9632 32.704C89.9632 32.704 90.1552 32.736 90.5392 32.8C90.9552 32.832 91.4192 32.928 91.9312 33.088C92.4432 33.216 92.9072 33.44 93.3232 33.76C93.7712 34.048 94.0112 34.464 94.0432 35.008C94.0752 35.36 94.1232 36.128 94.1872 37.312C94.2512 38.464 94.3152 39.84 94.3792 41.44C94.4752 43.04 94.5552 44.704 94.6192 46.432C94.7152 48.128 94.7952 49.728 94.8592 51.232C94.9232 52.704 94.9712 53.904 95.0032 54.832C95.0672 55.76 95.0992 56.224 95.0992 56.224C95.0992 56.224 95.0832 56.416 95.0512 56.8C95.0512 57.184 94.9552 57.664 94.7632 58.24C94.6032 58.816 94.2992 59.376 93.8512 59.92C92.8912 61.104 91.6752 62.08 90.2032 62.848C88.7312 63.616 86.7152 64 84.1552 64C82.4592 64 80.8272 63.68 79.2592 63.04C77.7232 62.4 76.4592 61.392 75.4672 60.016C74.5072 58.608 74.0432 56.784 74.0752 54.544C74.1072 52.848 74.4752 51.36 75.1792 50.08C75.9152 48.8 76.8752 47.744 78.0592 46.912C79.2432 46.048 80.5552 45.408 81.9952 44.992C83.4672 44.576 84.9392 44.368 86.4112 44.368L86.0752 36.064C86.0752 36.064 86.0432 35.92 85.9792 35.632C85.9152 35.312 85.9472 34.944 86.0752 34.528C86.2352 34.112 86.6032 33.728 87.1792 33.376C87.7552 33.024 88.6832 32.8 89.9632 32.704ZM86.5552 48.544C85.8192 48.48 85.1152 48.752 84.4432 49.36C83.7712 49.968 83.2112 50.752 82.7632 51.712C82.3472 52.64 82.1392 53.568 82.1392 54.496C82.1392 55.872 82.3632 57.056 82.8112 58.048C83.2912 59.04 83.9152 59.536 84.6832 59.536C85.1952 59.536 85.6272 59.328 85.9792 58.912C86.3312 58.496 86.6032 58.08 86.7952 57.664C86.9872 57.216 87.0832 56.992 87.0832 56.992L86.5552 48.544ZM101.173 43.792C101.173 43.792 100.965 43.792 100.549 43.792C100.133 43.76 99.6371 43.664 99.0611 43.504C98.5171 43.312 98.0211 42.976 97.5731 42.496C97.1251 42.016 96.8851 41.296 96.8531 40.336C96.8211 39.376 96.9651 38.672 97.2851 38.224C97.6051 37.744 98.0051 37.424 98.4851 37.264C98.9651 37.072 99.4291 36.976 99.8771 36.976C100.325 36.944 100.645 36.912 100.837 36.88C101.029 36.848 101.349 36.88 101.797 36.976C102.245 37.04 102.709 37.216 103.189 37.504C103.669 37.76 104.069 38.16 104.389 38.704C104.709 39.216 104.837 39.904 104.773 40.768C104.709 41.6 104.485 42.24 104.101 42.688C103.749 43.104 103.333 43.392 102.853 43.552C102.405 43.68 102.005 43.76 101.653 43.792C101.333 43.792 101.173 43.792 101.173 43.792ZM99.4931 61.024L98.3411 50.08C98.3411 50.08 98.2611 49.92 98.1011 49.6C97.9731 49.248 97.8771 49.008 97.8131 48.88C97.7811 48.784 97.7171 48.592 97.6211 48.304C97.5571 47.984 97.6371 47.648 97.8611 47.296C98.1171 46.944 98.6611 46.688 99.4931 46.528C100.357 46.368 101.253 46.32 102.181 46.384C103.109 46.448 103.925 46.736 104.629 47.248C105.365 47.728 105.813 48.576 105.973 49.792C106.101 50.688 106.229 51.76 106.357 53.008C106.485 54.224 106.597 55.424 106.693 56.608C106.821 57.76 106.917 58.736 106.981 59.536C107.077 60.304 107.125 60.688 107.125 60.688C107.125 60.688 107.141 60.864 107.173 61.216C107.205 61.536 107.157 61.92 107.029 62.368C106.901 62.784 106.581 63.168 106.069 63.52C105.589 63.84 104.805 64 103.717 64C102.629 64 101.797 63.856 101.221 63.568C100.645 63.248 100.229 62.896 99.9731 62.512C99.7491 62.128 99.6051 61.792 99.5411 61.504C99.5091 61.184 99.4931 61.024 99.4931 61.024ZM119.873 44.512C121.057 44.416 121.969 44.544 122.609 44.896C123.249 45.248 123.633 45.456 123.761 45.52C124.081 45.68 124.369 45.856 124.625 46.048C124.913 46.24 125.057 46.336 125.057 46.336C125.057 46.336 125.297 46.416 125.777 46.576C126.257 46.736 126.817 47.12 127.457 47.728C128.097 48.304 128.689 49.216 129.233 50.464C129.777 51.712 130.097 53.408 130.193 55.552C130.257 56.992 130.033 58.208 129.521 59.2C129.009 60.16 128.321 60.96 127.457 61.6C126.625 62.208 125.713 62.688 124.721 63.04C123.761 63.36 122.833 63.584 121.937 63.712C121.073 63.84 120.353 63.92 119.777 63.952C119.233 63.984 118.961 64 118.961 64C118.961 64 118.641 64 118.001 64C117.393 64 116.625 63.904 115.697 63.712C114.769 63.488 113.841 63.072 112.913 62.464C112.017 61.824 111.265 60.896 110.657 59.68C110.081 58.464 109.825 56.848 109.889 54.832C109.953 52.816 110.321 51.168 110.993 49.888C111.697 48.576 112.529 47.552 113.489 46.816C114.481 46.08 115.457 45.552 116.417 45.232C117.409 44.912 118.225 44.72 118.865 44.656C119.537 44.56 119.873 44.512 119.873 44.512ZM120.065 49.216C120.065 49.216 119.857 49.472 119.441 49.984C119.057 50.496 118.657 51.216 118.241 52.144C117.857 53.072 117.665 54.16 117.665 55.408C117.665 56.624 117.809 57.584 118.097 58.288C118.385 58.992 118.689 59.504 119.009 59.824C119.361 60.112 119.633 60.256 119.825 60.256C120.017 60.256 120.321 60.176 120.737 60.016C121.185 59.824 121.585 59.408 121.937 58.768C122.289 58.128 122.449 57.12 122.417 55.744C122.385 54.592 122.257 53.664 122.033 52.96C121.841 52.256 121.569 51.632 121.217 51.088C120.897 50.512 120.513 49.888 120.065 49.216ZM159.935 44.848C158.847 44.848 158.015 44.72 157.439 44.464C156.863 44.176 156.447 43.856 156.191 43.504C155.967 43.152 155.839 42.832 155.807 42.544C155.775 42.224 155.759 42.032 155.759 41.968C155.759 41.808 155.695 41.552 155.567 41.2C155.471 40.816 155.151 40.624 154.607 40.624C153.711 40.624 152.911 40.896 152.207 41.44C151.535 41.984 151.167 42.784 151.103 43.84C151.039 44.896 151.311 45.808 151.919 46.576C152.527 47.344 153.727 47.744 155.519 47.776C156.415 47.776 157.359 47.904 158.351 48.16C159.343 48.416 160.271 48.832 161.135 49.408C162.031 49.952 162.735 50.704 163.247 51.664C163.791 52.592 164.063 53.76 164.063 55.168C164.031 57.984 163.279 60.16 161.807 61.696C160.335 63.232 157.887 64 154.463 64C152.191 64 150.367 63.728 148.991 63.184C147.615 62.608 146.607 61.936 145.967 61.168C145.359 60.4 145.039 59.712 145.007 59.104C144.975 58.496 145.007 57.904 145.103 57.328C145.231 56.752 145.567 56.256 146.111 55.84C146.687 55.424 147.599 55.168 148.847 55.072C150.127 54.976 151.039 55.088 151.583 55.408C152.127 55.696 152.463 56.032 152.591 56.416C152.751 56.8 152.831 57.04 152.831 57.136C152.831 57.232 152.863 57.472 152.927 57.856C153.023 58.208 153.183 58.56 153.407 58.912C153.663 59.232 154.015 59.392 154.463 59.392C155.135 59.392 155.711 59.12 156.191 58.576C156.671 58.032 156.975 57.152 157.103 55.936C157.327 53.536 156.127 52.336 153.503 52.336C152.863 52.336 152.031 52.24 151.007 52.048C150.015 51.824 149.023 51.44 148.031 50.896C147.039 50.32 146.207 49.52 145.535 48.496C144.863 47.472 144.543 46.128 144.575 44.464C144.607 42.8 144.911 41.44 145.487 40.384C146.063 39.296 146.815 38.464 147.743 37.888C148.703 37.28 149.743 36.848 150.863 36.592C152.015 36.336 153.151 36.192 154.271 36.16C155.775 36.128 157.215 36.304 158.591 36.688C159.999 37.072 161.167 37.664 162.095 38.464C163.055 39.232 163.599 40.24 163.727 41.488C163.823 42.416 163.679 43.12 163.295 43.6C162.943 44.048 162.495 44.368 161.951 44.56C161.439 44.72 160.975 44.816 160.559 44.848C160.143 44.848 159.935 44.848 159.935 44.848ZM166.323 47.392C166.323 47.392 166.323 47.248 166.323 46.96C166.355 46.672 166.467 46.352 166.659 46C166.851 45.616 167.203 45.28 167.715 44.992C168.259 44.704 169.027 44.56 170.019 44.56C171.235 44.56 172.099 44.736 172.611 45.088C173.155 45.408 173.475 45.808 173.571 46.288C173.699 46.736 173.731 47.184 173.667 47.632C173.603 48.048 173.571 48.336 173.571 48.496C173.571 48.624 173.571 49.104 173.571 49.936C173.603 50.736 173.667 51.696 173.763 52.816C173.859 53.936 174.019 55.04 174.243 56.128C174.467 57.216 174.787 58.128 175.203 58.864C175.619 59.568 176.163 59.904 176.835 59.872C177.507 59.84 177.955 59.488 178.179 58.816C178.403 58.144 178.483 57.312 178.419 56.32C178.387 55.328 178.275 54.336 178.083 53.344C177.891 52.352 177.699 51.504 177.507 50.8C177.315 50.064 177.219 49.648 177.219 49.552C177.219 49.424 177.171 49.2 177.075 48.88C177.011 48.528 177.011 48.144 177.075 47.728C177.171 47.312 177.443 46.928 177.891 46.576C178.339 46.224 179.075 46 180.099 45.904C181.123 45.808 181.923 45.872 182.499 46.096C183.107 46.288 183.539 46.544 183.795 46.864C184.083 47.184 184.259 47.488 184.323 47.776C184.387 48.032 184.419 48.16 184.419 48.16C184.419 48.16 184.531 48.544 184.755 49.312C184.979 50.08 185.187 51.072 185.379 52.288C185.571 53.472 185.635 54.736 185.571 56.08C185.539 57.424 185.251 58.704 184.707 59.92C184.195 61.104 183.331 62.08 182.115 62.848C180.931 63.616 179.267 64 177.123 64C174.979 64 173.219 63.6 171.843 62.8C170.467 62 169.379 60.976 168.579 59.728C167.811 58.448 167.251 57.104 166.899 55.696C166.547 54.288 166.339 52.96 166.275 51.712C166.211 50.432 166.195 49.392 166.227 48.592C166.291 47.792 166.323 47.392 166.323 47.392Z" fill="white"/>
<path d="M171.28 43C170.384 43 169.504 42.856 168.64 42.568C167.808 42.28 167.344 41.752 167.248 40.984C167.152 40.568 167.072 40.168 167.008 39.784C166.944 39.4 167.072 39.048 167.392 38.728C167.84 38.248 168.496 37.928 169.36 37.768C170.224 37.608 171.104 37.592 172 37.72C172.896 37.848 173.616 38.088 174.16 38.44C174.544 38.696 174.8 39.032 174.928 39.448C175.056 39.832 175.136 40.232 175.168 40.648C175.264 41.224 175.104 41.688 174.688 42.04C174.272 42.392 173.744 42.648 173.104 42.808C172.464 42.936 171.856 43 171.28 43Z" fill="white"/>
<path d="M182.28 43C181.384 43 180.504 42.856 179.64 42.568C178.808 42.28 178.344 41.752 178.248 40.984C178.152 40.568 178.072 40.168 178.008 39.784C177.944 39.4 178.072 39.048 178.392 38.728C178.84 38.248 179.496 37.928 180.36 37.768C181.224 37.608 182.104 37.592 183 37.72C183.896 37.848 184.616 38.088 185.16 38.44C185.544 38.696 185.8 39.032 185.928 39.448C186.056 39.832 186.136 40.232 186.168 40.648C186.264 41.224 186.104 41.688 185.688 42.04C185.272 42.392 184.744 42.648 184.104 42.808C183.464 42.936 182.856 43 182.28 43Z" fill="white"/>
<circle cx="168" cy="40" r="2" fill="#010101"/>
<circle cx="179" cy="40" r="2" fill="#010101"/>
</svg>
