<svg width="261" height="82" viewBox="0 0 261 82" fill="none" xmlns="http://www.w3.org/2000/svg">
<rect width="261" height="82" rx="5" fill="#B492C0"/>
<path d="M39.08 33.464C37.6293 33.464 36.52 33.2933 35.752 32.952C34.984 32.568 34.4293 32.1413 34.088 31.672C33.7893 31.2027 33.6187 30.776 33.576 30.392C33.5333 29.9653 33.512 29.7093 33.512 29.624C33.512 29.4107 33.4267 29.0693 33.256 28.6C33.128 28.088 32.7013 27.832 31.976 27.832C30.7813 27.832 29.7147 28.1947 28.776 28.92C27.88 29.6453 27.3893 30.712 27.304 32.12C27.2187 33.528 27.5813 34.744 28.392 35.768C29.2027 36.792 30.8027 37.3253 33.192 37.368C34.3867 37.368 35.6453 37.5387 36.968 37.88C38.2907 38.2213 39.528 38.776 40.68 39.544C41.8747 40.2693 42.8133 41.272 43.496 42.552C44.2213 43.7893 44.584 45.3467 44.584 47.224C44.5413 50.9787 43.5387 53.88 41.576 55.928C39.6133 57.976 36.3493 59 31.784 59C28.7547 59 26.3227 58.6373 24.488 57.912C22.6533 57.144 21.3093 56.248 20.456 55.224C19.6453 54.2 19.2187 53.2827 19.176 52.472C19.1333 51.6613 19.176 50.872 19.304 50.104C19.4747 49.336 19.9227 48.6747 20.648 48.12C21.416 47.5653 22.632 47.224 24.296 47.096C26.0027 46.968 27.2187 47.1173 27.944 47.544C28.6693 47.928 29.1173 48.376 29.288 48.888C29.5013 49.4 29.608 49.72 29.608 49.848C29.608 49.976 29.6507 50.296 29.736 50.808C29.864 51.2773 30.0773 51.7467 30.376 52.216C30.7173 52.6427 31.1867 52.856 31.784 52.856C32.68 52.856 33.448 52.4933 34.088 51.768C34.728 51.0427 35.1333 49.8693 35.304 48.248C35.6027 45.048 34.0027 43.448 30.504 43.448C29.6507 43.448 28.5413 43.32 27.176 43.064C25.8533 42.7653 24.5307 42.2533 23.208 41.528C21.8853 40.76 20.776 39.6933 19.88 38.328C18.984 36.9627 18.5573 35.1707 18.6 32.952C18.6427 30.7333 19.048 28.92 19.816 27.512C20.584 26.0613 21.5867 24.952 22.824 24.184C24.104 23.3733 25.4907 22.7973 26.984 22.456C28.52 22.1147 30.0347 21.9227 31.528 21.88C33.5333 21.8373 35.4533 22.072 37.288 22.584C39.1653 23.096 40.7227 23.8853 41.96 24.952C43.24 25.976 43.9653 27.32 44.136 28.984C44.264 30.2213 44.072 31.16 43.56 31.8C43.0907 32.3973 42.4933 32.824 41.768 33.08C41.0853 33.2933 40.4667 33.4213 39.912 33.464C39.3573 33.464 39.08 33.464 39.08 33.464ZM47.661 24.056C47.6183 22.9893 47.9383 22.136 48.621 21.496C49.3037 20.8133 50.8183 20.408 53.165 20.28C54.7437 20.1947 55.8957 20.3867 56.621 20.856C57.3463 21.3253 57.7943 21.816 57.965 22.328C58.1783 22.7973 58.285 23.032 58.285 23.032L58.669 28.728C58.669 28.728 59.0103 28.728 59.693 28.728C60.4183 28.728 61.229 28.8133 62.125 28.984C63.0637 29.112 63.8743 29.3893 64.557 29.816C65.2823 30.2427 65.645 30.904 65.645 31.8C65.645 32.696 65.3037 33.3573 64.621 33.784C63.9383 34.2107 63.149 34.5093 62.253 34.68C61.357 34.808 60.5463 34.872 59.821 34.872C59.1383 34.872 58.797 34.872 58.797 34.872C58.797 34.872 58.797 35.3627 58.797 36.344C58.8397 37.2827 58.861 38.52 58.861 40.056C58.861 41.5493 58.8823 43.1493 58.925 44.856C58.9677 46.5627 58.989 48.2053 58.989 49.784C58.989 51.32 58.989 52.6213 58.989 53.688C59.0317 54.712 59.053 55.3093 59.053 55.48C59.053 55.7787 58.9463 56.2053 58.733 56.76C58.5623 57.3147 58.0717 57.8267 57.261 58.296C56.493 58.7653 55.213 59 53.421 59C52.0983 59 51.0743 58.8507 50.349 58.552C49.6237 58.2107 49.0903 57.848 48.749 57.464C48.4503 57.0373 48.2797 56.6747 48.237 56.376C48.1943 56.0347 48.173 55.864 48.173 55.864L47.661 24.056ZM68.472 36.856C68.472 36.856 68.472 36.664 68.472 36.28C68.5147 35.896 68.664 35.4693 68.92 35C69.176 34.488 69.6453 34.04 70.328 33.656C71.0533 33.272 72.0773 33.08 73.4 33.08C75.0213 33.08 76.1733 33.3147 76.856 33.784C77.5813 34.2107 78.008 34.744 78.136 35.384C78.3067 35.9813 78.3493 36.5787 78.264 37.176C78.1787 37.7307 78.136 38.1147 78.136 38.328C78.136 38.4987 78.136 39.1387 78.136 40.248C78.1787 41.3147 78.264 42.5947 78.392 44.088C78.52 45.5813 78.7333 47.0533 79.032 48.504C79.3307 49.9547 79.7573 51.1707 80.312 52.152C80.8667 53.0907 81.592 53.5387 82.488 53.496C83.384 53.4533 83.9813 52.984 84.28 52.088C84.5787 51.192 84.6853 50.0827 84.6 48.76C84.5573 47.4373 84.408 46.1147 84.152 44.792C83.896 43.4693 83.64 42.3387 83.384 41.4C83.128 40.4187 83 39.864 83 39.736C83 39.5653 82.936 39.2667 82.808 38.84C82.7227 38.3707 82.7227 37.8587 82.808 37.304C82.936 36.7493 83.2987 36.2373 83.896 35.768C84.4933 35.2987 85.4747 35 86.84 34.872C88.2053 34.744 89.272 34.8293 90.04 35.128C90.8507 35.384 91.4267 35.7253 91.768 36.152C92.152 36.5787 92.3867 36.984 92.472 37.368C92.5573 37.7093 92.6 37.88 92.6 37.88C92.6 37.88 92.7493 38.392 93.048 39.416C93.3467 40.44 93.624 41.7627 93.88 43.384C94.136 44.9627 94.2213 46.648 94.136 48.44C94.0933 50.232 93.7093 51.9387 92.984 53.56C92.3013 55.1387 91.1493 56.44 89.528 57.464C87.9493 58.488 85.7307 59 82.872 59C80.0133 59 77.6667 58.4667 75.832 57.4C73.9973 56.3333 72.5467 54.968 71.48 53.304C70.456 51.5973 69.7093 49.8053 69.24 47.928C68.7707 46.0507 68.4933 44.28 68.408 42.616C68.3227 40.9093 68.3013 39.5227 68.344 38.456C68.4293 37.3893 68.472 36.856 68.472 36.856ZM118.284 17.272C118.284 17.272 118.54 17.3147 119.052 17.4C119.607 17.4427 120.225 17.5707 120.908 17.784C121.591 17.9547 122.209 18.2533 122.764 18.68C123.361 19.064 123.681 19.6187 123.724 20.344C123.767 20.8133 123.831 21.8373 123.916 23.416C124.001 24.952 124.087 26.7867 124.172 28.92C124.3 31.0533 124.407 33.272 124.492 35.576C124.62 37.8373 124.727 39.9707 124.812 41.976C124.897 43.9387 124.961 45.5387 125.004 46.776C125.089 48.0133 125.132 48.632 125.132 48.632C125.132 48.632 125.111 48.888 125.068 49.4C125.068 49.912 124.94 50.552 124.684 51.32C124.471 52.088 124.065 52.8347 123.468 53.56C122.188 55.1387 120.567 56.44 118.604 57.464C116.641 58.488 113.953 59 110.54 59C108.279 59 106.103 58.5733 104.012 57.72C101.964 56.8667 100.279 55.5227 98.956 53.688C97.676 51.8107 97.0573 49.3787 97.1 46.392C97.1427 44.1307 97.6333 42.1467 98.572 40.44C99.5533 38.7333 100.833 37.3253 102.412 36.216C103.991 35.064 105.74 34.2107 107.66 33.656C109.623 33.1013 111.585 32.824 113.548 32.824L113.1 21.752C113.1 21.752 113.057 21.56 112.972 21.176C112.887 20.7493 112.929 20.2587 113.1 19.704C113.313 19.1493 113.804 18.6373 114.572 18.168C115.34 17.6987 116.577 17.4 118.284 17.272ZM113.74 38.392C112.759 38.3067 111.82 38.6693 110.924 39.48C110.028 40.2907 109.281 41.336 108.684 42.616C108.129 43.8533 107.852 45.0907 107.852 46.328C107.852 48.1627 108.151 49.7413 108.748 51.064C109.388 52.3867 110.22 53.048 111.244 53.048C111.927 53.048 112.503 52.7707 112.972 52.216C113.441 51.6613 113.804 51.1067 114.06 50.552C114.316 49.9547 114.444 49.656 114.444 49.656L113.74 38.392ZM133.231 32.056C133.231 32.056 132.953 32.056 132.399 32.056C131.844 32.0133 131.183 31.8853 130.415 31.672C129.689 31.416 129.028 30.968 128.431 30.328C127.833 29.688 127.513 28.728 127.471 27.448C127.428 26.168 127.62 25.2293 128.047 24.632C128.473 23.992 129.007 23.5653 129.647 23.352C130.287 23.096 130.905 22.968 131.503 22.968C132.1 22.9253 132.527 22.8827 132.783 22.84C133.039 22.7973 133.465 22.84 134.062 22.968C134.66 23.0533 135.279 23.288 135.919 23.672C136.559 24.0133 137.092 24.5467 137.519 25.272C137.945 25.9547 138.116 26.872 138.031 28.024C137.945 29.1333 137.647 29.9867 137.135 30.584C136.665 31.1387 136.111 31.5227 135.47 31.736C134.873 31.9067 134.34 32.0133 133.871 32.056C133.444 32.056 133.231 32.056 133.231 32.056ZM130.991 55.032L129.455 40.44C129.455 40.44 129.348 40.2267 129.135 39.8C128.964 39.3307 128.836 39.0107 128.751 38.84C128.708 38.712 128.623 38.456 128.495 38.072C128.409 37.6453 128.516 37.1973 128.815 36.728C129.156 36.2587 129.881 35.9173 130.991 35.704C132.143 35.4907 133.337 35.4267 134.575 35.512C135.812 35.5973 136.9 35.9813 137.839 36.664C138.82 37.304 139.417 38.4347 139.631 40.056C139.801 41.2507 139.972 42.68 140.143 44.344C140.313 45.9653 140.463 47.5653 140.591 49.144C140.761 50.68 140.889 51.9813 140.975 53.048C141.103 54.072 141.167 54.584 141.167 54.584C141.167 54.584 141.188 54.8187 141.231 55.288C141.273 55.7147 141.209 56.2267 141.039 56.824C140.868 57.3787 140.441 57.8907 139.759 58.36C139.119 58.7867 138.073 59 136.623 59C135.172 59 134.063 58.808 133.295 58.424C132.527 57.9973 131.972 57.528 131.631 57.016C131.332 56.504 131.14 56.056 131.055 55.672C131.012 55.2453 130.991 55.032 130.991 55.032ZM158.164 33.016C159.742 32.888 160.958 33.0587 161.812 33.528C162.665 33.9973 163.177 34.2747 163.348 34.36C163.774 34.5733 164.158 34.808 164.5 35.064C164.884 35.32 165.076 35.448 165.076 35.448C165.076 35.448 165.396 35.5547 166.036 35.768C166.676 35.9813 167.422 36.4933 168.276 37.304C169.129 38.072 169.918 39.288 170.644 40.952C171.369 42.616 171.796 44.8773 171.924 47.736C172.009 49.656 171.71 51.2773 171.028 52.6C170.345 53.88 169.428 54.9467 168.276 55.8C167.166 56.6107 165.95 57.2507 164.628 57.72C163.348 58.1467 162.11 58.4453 160.916 58.616C159.764 58.7867 158.804 58.8933 158.036 58.936C157.31 58.9787 156.948 59 156.948 59C156.948 59 156.521 59 155.668 59C154.857 59 153.833 58.872 152.595 58.616C151.358 58.3173 150.121 57.7627 148.884 56.952C147.689 56.0987 146.686 54.8613 145.876 53.24C145.108 51.6187 144.766 49.464 144.852 46.776C144.937 44.088 145.428 41.8907 146.324 40.184C147.262 38.4347 148.372 37.0693 149.652 36.088C150.974 35.1067 152.275 34.4027 153.556 33.976C154.878 33.5493 155.966 33.2933 156.82 33.208C157.716 33.08 158.164 33.016 158.164 33.016ZM158.42 39.288C158.42 39.288 158.142 39.6293 157.588 40.312C157.076 40.9947 156.542 41.9547 155.988 43.192C155.476 44.4293 155.22 45.88 155.22 47.544C155.22 49.1653 155.412 50.4453 155.796 51.384C156.18 52.3227 156.585 53.0053 157.012 53.432C157.481 53.816 157.844 54.008 158.1 54.008C158.356 54.008 158.761 53.9013 159.316 53.688C159.913 53.432 160.446 52.8773 160.916 52.024C161.385 51.1707 161.598 49.8267 161.556 47.992C161.513 46.456 161.342 45.2187 161.044 44.28C160.788 43.3413 160.425 42.5093 159.956 41.784C159.529 41.016 159.017 40.184 158.42 39.288ZM211.58 33.464C210.129 33.464 209.02 33.2933 208.252 32.952C207.484 32.568 206.929 32.1413 206.588 31.672C206.289 31.2027 206.119 30.776 206.076 30.392C206.033 29.9653 206.012 29.7093 206.012 29.624C206.012 29.4107 205.927 29.0693 205.756 28.6C205.628 28.088 205.201 27.832 204.476 27.832C203.281 27.832 202.215 28.1947 201.276 28.92C200.38 29.6453 199.889 30.712 199.804 32.12C199.719 33.528 200.081 34.744 200.892 35.768C201.703 36.792 203.303 37.3253 205.692 37.368C206.887 37.368 208.145 37.5387 209.468 37.88C210.791 38.2213 212.028 38.776 213.18 39.544C214.375 40.2693 215.313 41.272 215.996 42.552C216.721 43.7893 217.084 45.3467 217.084 47.224C217.041 50.9787 216.039 53.88 214.076 55.928C212.113 57.976 208.849 59 204.284 59C201.255 59 198.823 58.6373 196.988 57.912C195.153 57.144 193.809 56.248 192.956 55.224C192.145 54.2 191.719 53.2827 191.676 52.472C191.633 51.6613 191.676 50.872 191.804 50.104C191.975 49.336 192.423 48.6747 193.148 48.12C193.916 47.5653 195.132 47.224 196.796 47.096C198.503 46.968 199.719 47.1173 200.444 47.544C201.169 47.928 201.617 48.376 201.788 48.888C202.001 49.4 202.108 49.72 202.108 49.848C202.108 49.976 202.151 50.296 202.236 50.808C202.364 51.2773 202.577 51.7467 202.876 52.216C203.217 52.6427 203.687 52.856 204.284 52.856C205.18 52.856 205.948 52.4933 206.588 51.768C207.228 51.0427 207.633 49.8693 207.804 48.248C208.103 45.048 206.503 43.448 203.004 43.448C202.151 43.448 201.041 43.32 199.676 43.064C198.353 42.7653 197.031 42.2533 195.708 41.528C194.385 40.76 193.276 39.6933 192.38 38.328C191.484 36.9627 191.057 35.1707 191.1 32.952C191.143 30.7333 191.548 28.92 192.316 27.512C193.084 26.0613 194.087 24.952 195.324 24.184C196.604 23.3733 197.991 22.7973 199.484 22.456C201.02 22.1147 202.535 21.9227 204.028 21.88C206.033 21.8373 207.953 22.072 209.788 22.584C211.665 23.096 213.223 23.8853 214.46 24.952C215.74 25.976 216.465 27.32 216.636 28.984C216.764 30.2213 216.572 31.16 216.06 31.8C215.591 32.3973 214.993 32.824 214.268 33.08C213.585 33.2933 212.967 33.4213 212.412 33.464C211.857 33.464 211.58 33.464 211.58 33.464ZM220.097 36.856C220.097 36.856 220.097 36.664 220.097 36.28C220.14 35.896 220.289 35.4693 220.545 35C220.801 34.488 221.27 34.04 221.953 33.656C222.678 33.272 223.702 33.08 225.025 33.08C226.646 33.08 227.798 33.3147 228.481 33.784C229.206 34.2107 229.633 34.744 229.761 35.384C229.932 35.9813 229.974 36.5787 229.889 37.176C229.804 37.7307 229.761 38.1147 229.761 38.328C229.761 38.4987 229.761 39.1387 229.761 40.248C229.804 41.3147 229.889 42.5947 230.017 44.088C230.145 45.5813 230.358 47.0533 230.657 48.504C230.956 49.9547 231.382 51.1707 231.937 52.152C232.492 53.0907 233.217 53.5387 234.113 53.496C235.009 53.4533 235.606 52.984 235.905 52.088C236.204 51.192 236.31 50.0827 236.225 48.76C236.182 47.4373 236.033 46.1147 235.777 44.792C235.521 43.4693 235.265 42.3387 235.009 41.4C234.753 40.4187 234.625 39.864 234.625 39.736C234.625 39.5653 234.561 39.2667 234.433 38.84C234.348 38.3707 234.348 37.8587 234.433 37.304C234.561 36.7493 234.924 36.2373 235.521 35.768C236.118 35.2987 237.1 35 238.465 34.872C239.83 34.744 240.897 34.8293 241.665 35.128C242.476 35.384 243.052 35.7253 243.393 36.152C243.777 36.5787 244.012 36.984 244.097 37.368C244.182 37.7093 244.225 37.88 244.225 37.88C244.225 37.88 244.374 38.392 244.673 39.416C244.972 40.44 245.249 41.7627 245.505 43.384C245.761 44.9627 245.846 46.648 245.761 48.44C245.718 50.232 245.334 51.9387 244.609 53.56C243.926 55.1387 242.774 56.44 241.153 57.464C239.574 58.488 237.356 59 234.497 59C231.638 59 229.292 58.4667 227.457 57.4C225.622 56.3333 224.172 54.968 223.105 53.304C222.081 51.5973 221.334 49.8053 220.865 47.928C220.396 46.0507 220.118 44.28 220.033 42.616C219.948 40.9093 219.926 39.5227 219.969 38.456C220.054 37.3893 220.097 36.856 220.097 36.856Z" fill="white"/>
<path d="M226.38 31C225.297 31 224.234 30.826 223.19 30.478C222.185 30.13 221.624 29.492 221.508 28.564C221.392 28.0613 221.295 27.578 221.218 27.114C221.141 26.65 221.295 26.2247 221.682 25.838C222.223 25.258 223.016 24.8713 224.06 24.678C225.104 24.4847 226.167 24.4653 227.25 24.62C228.333 24.7747 229.203 25.0647 229.86 25.49C230.324 25.7993 230.633 26.2053 230.788 26.708C230.943 27.172 231.039 27.6553 231.078 28.158C231.194 28.854 231.001 29.4147 230.498 29.84C229.995 30.2653 229.357 30.5747 228.584 30.768C227.811 30.9227 227.076 31 226.38 31Z" fill="white"/>
<path d="M241.38 31C240.297 31 239.234 30.826 238.19 30.478C237.185 30.13 236.624 29.492 236.508 28.564C236.392 28.0613 236.295 27.578 236.218 27.114C236.141 26.65 236.295 26.2247 236.682 25.838C237.223 25.258 238.016 24.8713 239.06 24.678C240.104 24.4847 241.167 24.4653 242.25 24.62C243.333 24.7747 244.203 25.0647 244.86 25.49C245.324 25.7993 245.633 26.2053 245.788 26.708C245.943 27.172 246.039 27.6553 246.078 28.158C246.194 28.854 246.001 29.4147 245.498 29.84C244.995 30.2653 244.357 30.5747 243.584 30.768C242.811 30.9227 242.076 31 241.38 31Z" fill="white"/>
<circle cx="223" cy="28" r="3" fill="#010101"/>
<circle cx="237" cy="28" r="3" fill="#010101"/>
</svg>
