<svg width="119" height="119" viewBox="0 0 119 119" fill="none" xmlns="http://www.w3.org/2000/svg">
<circle cx="59.5" cy="59.5" r="59.5" fill="#45A1FF"/>
<path d="M40.4985 45.4645C42.5989 49.0041 42.9828 54.321 39.1912 55.9226C36.1029 57.2271 32.8926 56.1603 31.2288 52.7139C29.565 49.2674 29.3273 42.3745 32.1795 41.305C35.0318 40.2354 38.645 42.3408 40.4985 45.4645Z" fill="white"/>
<path d="M55.9603 36.6333C56.0785 39.129 54.1029 45.3248 49.8994 45.5465C45.5335 45.7767 42.65 40.7928 43.1254 36.6333C43.6007 32.4738 45.3086 26.7714 49.8994 27.0071C54.3359 27.2348 55.8422 34.1376 55.9603 36.6333Z" fill="white"/>
<path d="M67.8446 45.5465C63.7419 45.6005 61.546 40.1986 61.546 37.1087C61.546 34.0188 63.212 27.3789 67.8446 27.2447C72.7536 27.1026 74.4998 34.8507 74.2621 38.0594C74.0244 41.2682 71.6953 45.4958 67.8446 45.5465Z" fill="white"/>
<path d="M78.6593 56.0046C81.6765 57.4264 84.5597 55.5364 86.6217 52.9147C89.515 49.236 88.2855 41.9812 85.0768 41.0305C81.868 40.0797 77.213 43.3798 76.1636 47.5668C75.3282 50.9 75.5508 54.5399 78.6593 56.0046Z" fill="white"/>
<path d="M37.6172 69.3129C37.6171 66.8243 38.3703 64.3922 39.7804 62.3278C41.1904 60.2634 43.1933 58.6604 45.5327 57.724C47.8722 56.7875 50.4419 56.5602 52.9131 57.071C55.3844 57.5819 57.6449 58.8076 59.4054 60.5916C61.166 58.8076 63.4265 57.5819 65.8977 57.071C68.369 56.5602 70.9387 56.7875 73.2782 57.724C75.6176 58.6604 77.6205 60.2634 79.0305 62.3278C80.4406 64.3922 81.1937 66.8243 81.1937 69.3129C81.1986 71.2665 80.7366 73.1938 79.8453 74.9388C78.954 76.6837 77.6584 78.1973 76.0633 79.3571L61.7019 91.0204C60.9034 91.6691 59.8966 92.0166 58.8619 92.0006C57.8271 91.9846 56.8319 91.6062 56.0544 90.9331L42.0664 78.8231C40.67 77.6502 39.549 76.1922 38.7808 74.5502C38.0125 72.9081 37.6155 71.1211 37.6172 69.3129Z" fill="white"/>
</svg>
